<?xml version="1.0" standalone="no"?>
<!DOCTYPE svg PUBLIC "-//W3C//DTD SVG 20010904//EN"
 "http://www.w3.org/TR/2001/REC-SVG-20010904/DTD/svg10.dtd">
<svg version="1.0" xmlns="http://www.w3.org/2000/svg"
 width="300.000000pt" height="300.000000pt" viewBox="0 0 300.000000 300.000000"
 preserveAspectRatio="xMidYMid meet">
<metadata>
Created by potrace 1.14, written by Peter Selinger 2001-2017
</metadata>
<g transform="translate(0.000000,300.000000) scale(0.100000,-0.100000)"
fill="#000000" stroke="none">
<path d="M785 2695 c-22 -8 -73 -14 -114 -14 -60 -1 -82 -6 -116 -25 -23 -14
-73 -37 -110 -51 -65 -24 -155 -74 -180 -98 -6 -7 -30 -37 -53 -67 -23 -30
-59 -77 -81 -104 -55 -70 -81 -126 -106 -232 -26 -109 -31 -267 -10 -317 10
-25 10 -41 1 -78 -23 -87 -15 -109 103 -294 97 -153 100 -156 196 -220 139
-92 196 -110 499 -161 37 -6 60 -3 217 33 37 8 86 16 110 18 109 7 337 98 378
151 19 24 21 39 21 176 0 169 9 202 67 254 42 38 77 47 127 33 51 -14 92 -52
103 -98 6 -23 11 -254 11 -565 l1 -526 -30 -35 c-17 -19 -37 -35 -44 -35 -8 0
-27 -12 -44 -26 -60 -50 -29 -109 59 -114 19 -1 151 -2 292 -3 l256 -2 27 25
c39 37 31 68 -29 107 -97 63 -91 45 -92 291 0 119 4 230 9 245 18 54 82 69
175 42 84 -25 116 -50 151 -115 18 -33 42 -66 54 -75 30 -21 80 -19 102 5 19
20 19 27 11 200 -14 270 -23 310 -71 310 -24 0 -32 -8 -107 -110 -75 -100
-203 -128 -273 -60 -19 18 -38 45 -43 59 -5 14 -8 112 -8 216 1 231 4 240 90
250 31 4 104 6 164 4 149 -6 209 -35 318 -154 81 -90 107 -102 150 -71 16 12
19 28 20 88 1 40 5 96 9 123 6 43 4 54 -15 78 -43 55 -62 58 -298 58 -503 -1
-659 0 -687 4 -35 5 -105 6 -308 1 -101 -3 -164 0 -198 9 -53 14 -72 14 -134
-3 -22 -6 -104 -11 -183 -10 -148 0 -197 -9 -204 -40 -8 -34 4 -50 58 -76 68
-34 99 -79 120 -175 12 -58 13 -89 4 -147 -12 -89 -35 -125 -99 -156 -56 -27
-213 -35 -273 -14 -92 32 -205 126 -227 188 -7 18 -21 56 -33 83 -24 60 -37
111 -39 156 -1 19 -8 62 -16 96 -15 72 -17 332 -1 372 5 14 14 49 19 78 5 28
32 99 60 157 44 95 55 110 106 147 111 83 258 105 388 60 48 -16 71 -32 112
-78 65 -72 141 -179 179 -256 50 -101 94 -120 138 -60 29 40 30 243 0 376 -12
55 -28 103 -35 108 -28 18 -62 21 -102 9 -73 -22 -103 -19 -204 23 -89 36
-108 40 -198 42 -62 2 -115 -2 -140 -10z"/>
</g>
</svg>
